<svg width="11" height="11" fill="none" xmlns="http://www.w3.org/2000/svg"><path d="M5.5 8l-.2.3a.2.2 0 10.4 0c0-.1 0-.2-.2-.2z" fill="#000"/><path d="M8.9 0H2C1 0 0 1 0 2.1V9C0 10 1 11 2.1 11h3.4l.2-.2V9a.2.2 0 10-.4 0v1.5H2c-1 0-1.7-.8-1.7-1.7V2c0-1 .8-1.7 1.7-1.7H9c1 0 1.7.8 1.7 1.7V9c0 1-.8 1.7-1.7 1.7H7.5V6.8h1.3l.2-.2L9 5a.2.2 0 00-.2-.2H7.5V4c0-.1 0-.2.2-.2h1.2c.1 0 .2 0 .2-.2V2c0-.1 0-.2-.2-.2H7.3c-.9 0-1.4.4-1.6.7-.4.5-.4 1-.4 1.3v1h-1L4 5v1.6l.2.2h1v.6a.2.2 0 10.5 0v-.8c0-.2 0-.3-.2-.3h-1v-1h1c.1 0 .2-.1.2-.3V4c0-.6.2-1.7 1.6-1.7h1.4v1h-1c-.3 0-.6.2-.6.7v1c0 .1 0 .2.2.2h1.4l-.1 1.1H7.3c-.1 0-.2.1-.2.3v4.2c0 .1 0 .2.2.2h1.6C10 11 11 10 11 8.9V2C11 1 10 0 8.9 0z" fill="#000"/><path d="M1.2 2.2l-.2.2v1.8a.2.2 0 10.5 0V2.4c0-.1-.1-.2-.3-.2zM1.2 5L1 5a.2.2 0 10.5 0S1.4 5 1.2 5z" fill="#000"/></svg>