<svg width="11" height="11" fill="none" xmlns="http://www.w3.org/2000/svg"><path d="M7.8 0H3.2A3.2 3.2 0 000 3.2v4.6C0 9.6 1.4 11 3.2 11h4.6C9.6 11 11 9.6 11 7.8V3.2C11 1.4 9.6 0 7.8 0zm2.8 7.8c0 1.5-1.3 2.8-2.8 2.8H3.2A2.8 2.8 0 01.4 7.8V3.2C.4 1.7 1.7.4 3.2.4h4.6c1.5 0 2.8 1.3 2.8 2.8v4.6z" fill="#000"/><path d="M7.8 1H3.2C2 1 1 2 1 3.1v4.6C1 9 2 10 3.2 10h1.3a.2.2 0 000-.5H3.2c-1 0-1.8-.8-1.8-1.8V3.2c0-1 .8-1.8 1.8-1.8h4.6c1 0 1.8.8 1.8 1.8v4.6c0 1-.8 1.8-1.8 1.8H6.5a.2.2 0 100 .5h1.3C9 10 10 9 10 7.8V3.2C10 2 9 1 7.8 1z" fill="#000"/><path d="M5.7 9.7a.2.2 0 00-.4 0 .2.2 0 000 .3.2.2 0 00.4 0 .2.2 0 000-.3zM3.8 3.3h-.3a.2.2 0 10.3.4v-.4z" fill="#000"/><path d="M5.5 2.5a3 3 0 00-1.4.4.2.2 0 00.2.3L5.5 3a2.5 2.5 0 11-2.2 1.3.2.2 0 10-.4-.3 3 3 0 102.6-1.5z" fill="#000"/><path d="M5.5 3.6a2 2 0 100 3.8 2 2 0 000-3.8zm0 3.4a1.5 1.5 0 110-3 1.5 1.5 0 010 3zM8.3 1.9a.8.8 0 100 1.6.8.8 0 000-1.6zm0 1.2a.4.4 0 110-.8.4.4 0 010 .8z" fill="#000"/></svg>