<svg width="14" height="14" fill="none" xmlns="http://www.w3.org/2000/svg"><g clip-path="url(#clip0)" fill="#000"><path d="M6.4 10.7a.3.3 0 10.3.4.3.3 0 00-.3-.4z"/><path d="M13.4 10.2l-2.1-1.8c-.6-.3-1.3-.3-1.7.2L8.4 9.7h-.3a7.4 7.4 0 01-3-2.3A5.5 5.5 0 014 6l.1-.3 1.1-1.2a1.4 1.4 0 00.2-1.7L4 .7C3.5-.2 2.5-.4 2 .3l-.2.2-.8.8c-1 1-1.2 2.5-.5 4.2a14 14 0 003.2 4.7 14 14 0 004.8 3.3c1.6.6 3.3.6 4.4-.5l.8-.8c.6-.6.5-1.6-.2-2.1zM11 8.9l2 1.7c.5.3.6 1 .2 1.3L9.5 9.4l.3-.3c.3-.3.7-.3 1-.1zM3.6.9L5 3c.2.3.1.8-.2 1l-.3.4L2.2.9V.8c.5-.4 1-.3 1.4.1zm5 12.2c-1.5-.6-3.1-1.7-4.6-3.2-1.4-1.4-2.5-3-3-4.5-.5-1-.8-2.6.2-3.6l.6-.6 2.4 3.6-.4.4c-.2.2-.3.5-.2.8.1.4.5 1.1 1 1.7a8 8 0 003.3 2.6c.3.1.7 0 1-.2l.3-.4 3.6 2.7-.4.3c-1 1-2.6.8-3.8.4z"/><path d="M5.8 10l-1-1A18 18 0 013 7a.3.3 0 10-.5.3C3.1 8.1 4 9 4.4 9.4l1 1a.3.3 0 00.4-.4z"/></g><defs><clipPath id="clip0"><path fill="#fff" d="M0 0h14v14H0z"/></clipPath></defs></svg>