<svg width="12" height="12" fill="none" xmlns="http://www.w3.org/2000/svg"><g clip-path="url(#clip0)" fill="#000"><path d="M9 2.9l-5 3c-.2.2-.3.5-.2.8l.5 1.9a.4.4 0 00.4.3c.2 0 .3-.2.3-.4l.2-1 .1-.3 4.1-3.8c.1-.1.2-.3 0-.5A.3.3 0 009 3zm-4 4a1 1 0 00-.3.6V8l-.5-1.4.1-.3L8 4.1 5 6.8z"/><path d="M11.8.9a.6.6 0 00-.6-.1L.4 5c-.3 0-.4.3-.4.5s.1.4.4.5l2.5 1 1 3.2a.6.6 0 00.9.2l1.5-1.2h.2l2.7 2a.6.6 0 00.8-.4l2-9.4c0-.2 0-.4-.2-.5zm-.3.4l-2 9.4-2.7-1.9a.7.7 0 00-.8 0l-1.5 1.3h-.1l-1-3.4-.2-.1-2.7-1v-.1l11-4.3v.1z"/><path d="M10 6h-.3v.3a.2.2 0 00.5 0v-.1c0-.1 0-.3-.2-.3zM9.8 7c-.1 0-.3 0-.3.2l-.6 2.5a.2.2 0 10.5.1l.6-2.5c0-.1 0-.3-.2-.3z"/></g><defs><clipPath id="clip0"><path fill="#fff" d="M0 0h12v12H0z"/></clipPath></defs></svg>